<svg data-name="expansion" xmlns="http://www.w3.org/2000/svg" viewBox="0 0 128 128"><defs><linearGradient id="a" x1="91.97" x2="36.03" y1="112.45" y2="15.55" gradientUnits="userSpaceOnUse"><stop offset="0" stop-color="#f071dd"/><stop offset="1" stop-color="#cc3096"/></linearGradient></defs><path d="M120 90.5v-53a10 10 0 0 0-5-8.66L69 2.34a10 10 0 0 0-10 0l-46 26.5a10 10 0 0 0-5 8.67v52.98a10 10 0 0 0 5 8.67l46 26.5a10 10 0 0 0 10 0l46-26.5a10 10 0 0 0 5-8.67" style="fill:url(#a)"/><path d="M103.34 82.76a6.13 6.13 0 0 0 3.9-7.76l-2.34.75a3.7 3.7 0 0 1-2.35 4.67l-61.09 20.82.29 2.5Zm-56.3-36.84a6.4 6.4 0 1 0-7.94-4.34 6.4 6.4 0 0 0 7.94 4.34M44 55.37c-3.37-6.44 6.3-11.64 9.87-5.4l6.96 13.2 13.22-3.76a4 4 0 0 1 3.66.85 5.2 5.2 0 0 1 1.55 3.72l.08 18.82c.02 4.67-7.05 4.73-7.05 0V69.05l-13.81 4.14a5.6 5.6 0 0 1-6.7-2.86Zm21.39 2.97v-39.7H62.6V59.1Zm-27.73 5.6c-1.9-3.74 3-6.21 4.9-2.48l5.96 11.7a7.7 7.7 0 0 0 6.76 4.07 13 13 0 0 0 2.6-.41l7.53-2.21c4-1.2 5.54 4.06 1.51 5.24L59 82.16a13 13 0 0 1-3.78.56 13.1 13.1 0 0 1-11.66-7.1Z" opacity=".85" style="fill:#fff"/><linearGradient id="b" x1="-237.93" x2="-237.93" y1="453.68" y2="454.68" gradientTransform="matrix(93.909 0 0 -52.3356 22408.1 23801.67)" gradientUnits="userSpaceOnUse"><stop offset="0" style="stop-color:#fff"/><stop offset="1" style="stop-color:#fff;stop-opacity:0"/></linearGradient><path d="M17.55 32.1 61.5 6.65a5 5 0 0 1 5 0l43.96 25.46a1 1 0 0 1-.03 1.74L66.38 57.71a5 5 0 0 1-4.76 0L17.57 33.85a1 1 0 0 1-.03-1.74" style="fill-rule:evenodd;clip-rule:evenodd;fill:url(#b);fill-opacity:.5;mix-blend-mode:overlay"/><linearGradient id="c" x1="-236.03" x2="-235.03" y1="456.49" y2="456.49" gradientTransform="matrix(48.5 0 0 -82.5455 11460.5 37760.34)" gradientUnits="userSpaceOnUse"><stop offset="0" style="stop-color:#fff;stop-opacity:0"/><stop offset="1" style="stop-color:#fff"/></linearGradient><path d="m14.48 38 45.45 24.65a3 3 0 0 1 1.57 2.64v53.93a1.2 1.2 0 0 1-1.8 1.04L15.5 94.85a5 5 0 0 1-2.5-4.33V38.88a1 1 0 0 1 1.48-.88" style="fill-rule:evenodd;clip-rule:evenodd;fill:url(#c);fill-opacity:.25;mix-blend-mode:overlay"/><path d="M113.52 38 68.07 62.65a3 3 0 0 0-1.57 2.64v53.93a1.2 1.2 0 0 0 1.8 1.04l44.2-25.42a5 5 0 0 0 2.5-4.33V38.88a1 1 0 0 0-1.48-.88" style="fill-rule:evenodd;clip-rule:evenodd;fill:#000;fill-opacity:.1;mix-blend-mode:overlay"/><path d="M110.82 33.47a1 1 0 0 1-.39.38L66.38 57.71a5 5 0 0 1-4.76 0l-23.8-12.9 23.4 9.11a7 7 0 0 0 5.2-.04l.28-.13 44.2-20.46zM33.03 48.06l26.9 14.59a3 3 0 0 1 1.57 2.64v43.32L58.6 66a3 3 0 0 0-1.2-2.21l-.16-.11z" style="fill-rule:evenodd;clip-rule:evenodd;fill:#fff;fill-opacity:.5"/></svg>