<svg xmlns:xlink="http://www.w3.org/1999/xlink" xmlns="http://www.w3.org/2000/svg" xml:space="preserve" style="fill-rule:evenodd;clip-rule:evenodd;stroke-linejoin:round;stroke-miterlimit:2" viewBox="0 0 3467 648"><path d="M118.202 23.075q-2.258 0-4.027-.831-1.758-.831-2.791-2.291-1.034-1.46-1.076-3.345h4.475a2.72 2.72 0 0 0 1.065 2.056q.99.789 2.354.789 1.087 0 1.918-.48a3.4 3.4 0 0 0 1.31-1.353q.48-.873.48-2.003 0-1.15-.49-2.024a3.47 3.47 0 0 0-1.332-1.363q-.852-.49-1.95-.501-.958 0-1.864.394-.895.395-1.396 1.076l-4.101-.735L111.81.958h13.338V4.73h-9.535l-.564 5.465h.128q.575-.81 1.736-1.343t2.6-.532q1.97 0 3.515.927a6.7 6.7 0 0 1 2.44 2.546q.894 1.608.884 3.707.01 2.205-1.023 3.921-1.022 1.704-2.865 2.684-1.832.97-4.262.97" style="fill:#fc8152;fill-rule:nonzero" transform="translate(22.191 3.171)scale(27.0116)"/><path d="M95.596 7.233q-.128-1.289-1.098-2.003-.969-.713-2.631-.713-1.129 0-1.907.319-.777.31-1.193.863-.405.553-.405 1.257-.02.587.245 1.023.277.437.757.756.478.309 1.107.544.629.224 1.343.383l1.96.469q1.428.32 2.621.852a8 8 0 0 1 2.067 1.311 5.45 5.45 0 0 1 1.353 1.832q.49 1.054.5 2.418-.01 2.003-1.023 3.473-1 1.46-2.897 2.27-1.886.798-4.549.799-2.643 0-4.603-.81-1.949-.81-3.046-2.397-1.088-1.598-1.14-3.953h4.463q.075 1.098.629 1.833.564.725 1.502 1.097.948.362 2.141.362 1.173 0 2.035-.341.875-.34 1.353-.948.48-.608.48-1.395 0-.735-.437-1.236-.426-.5-1.257-.853-.82-.351-2.014-.639l-2.375-.596q-2.76-.672-4.358-2.099t-1.587-3.846q-.011-1.981 1.055-3.462 1.076-1.48 2.951-2.312T91.899.66q2.429 0 4.24.831 1.822.831 2.834 2.312t1.044 3.43zM75.352.958h4.613v14.169q0 2.387-1.14 4.176-1.13 1.79-3.164 2.792-2.035.99-4.741.99-2.716 0-4.752-.99-2.034-1.001-3.164-2.792t-1.129-4.176V.958h4.613v13.775q0 1.247.543 2.216.555.969 1.556 1.524 1 .553 2.333.553 1.342 0 2.333-.553a3.9 3.9 0 0 0 1.545-1.524q.554-.97.554-2.216zm-27.158 7.22-.389.513h-3.841L39.466.958h4.972zm5.557-7.22h5.098l-6.757 10.909L59 22.776h-5.384l-4.143-7.446H49.3l-4.746 7.446H39zm-31.69 21.818V.958h14.701v3.804H26.674V9.96h9.332v3.804h-9.332v5.209h10.131v3.803zM18.249.958v21.818h-3.984L4.773 9.044h-.16v13.732H0V.958h4.048l9.418 13.722h.192V.958z" style="fill:#acbdd5" transform="translate(22.191 3.171)scale(27.0116)"/></svg>