<svg data-name="expansion" xmlns="http://www.w3.org/2000/svg" viewBox="0 0 128 128"><defs><linearGradient id="a" x1="69.73%" x2="30.27%" y1="88.45%" y2="11.55%"><stop offset="0%" stop-color="#FFE252"/><stop offset="100%" stop-color="#E29D2E"/></linearGradient><linearGradient id="b" x1="49.96%" x2="49.96%" y1="100.01%" y2=".01%"><stop offset="0%" stop-color="#FFF"/><stop offset="100%" stop-color="#FFF" stop-opacity="0"/></linearGradient><linearGradient id="c" x1="-.01%" x2="99.99%" y1="50%" y2="50%"><stop offset="0%" stop-color="#FFF" stop-opacity="0"/><stop offset="100%" stop-color="#FFF"/></linearGradient></defs><g fill="none" fill-rule="evenodd"><path fill="url(#a)" d="m59 2.34-46 26.5a10 10 0 0 0-5 8.67v52.98a10 10 0 0 0 5 8.67l46 26.5a10 10 0 0 0 10 0l46-26.5a10 10 0 0 0 5-8.67V37.51a10 10 0 0 0-5-8.67L69 2.34a9.99 9.99 0 0 0-9.99 0"/><path fill="#000" d="M64 22c17.39 0 23.7 10.52 23.94 22.98l.01.76c0 6.88 2.79 18.09.89 23.74a33 33 0 0 1-4.32 8.74c3.44 1.23 4.98 3.5 4.98 7.7C89.5 95.03 76.75 106 64 106S38.5 95.04 38.5 85.91c0-4.2 1.54-6.46 4.98-7.69a33 33 0 0 1-4.32-8.74c-1.9-5.65.9-16.86.9-23.74v-.76C40.3 32.52 46.62 22 64 22m0 43.83c-6.04 0-10.93 2.54-10.93 4.56s4.9 2.74 10.93 2.74c6.04 0 10.93-.72 10.93-2.74s-4.9-4.56-10.93-4.56M51.25 43.9c-7.29-3.65-7.29 10.96 0 10.96q5.65 0 9.1-2.19a1.83 1.83 0 0 0 .2-2.94l-.37-.3a50 50 0 0 0-8.93-5.53m25.5 0a50 50 0 0 0-8.93 5.52l-.37.3a1.83 1.83 0 0 0 .2 2.95q3.45 2.19 9.1 2.19c7.29 0 7.29-14.6 0-10.96" opacity=".7"/><path fill="url(#b)" fill-opacity=".6" d="M17.55 32.1 61.49 6.66a5 5 0 0 1 5.02 0l43.95 25.46a1 1 0 0 1-.03 1.74L66.38 57.71a5 5 0 0 1-4.76 0L17.57 33.85a1 1 0 0 1-.02-1.74" style="mix-blend-mode:overlay"/><path fill="url(#c)" fill-opacity=".4" d="m14.48 38 45.45 24.65a3 3 0 0 1 1.57 2.64v53.94a1.2 1.2 0 0 1-1.8 1.04L15.5 94.84a5 5 0 0 1-2.5-4.33V38.88a1 1 0 0 1 1.48-.88" style="mix-blend-mode:overlay"/><path fill="#B68A00" fill-opacity=".2" d="M113.52 38 68.07 62.65a3 3 0 0 0-1.57 2.64v53.94a1.2 1.2 0 0 0 1.8 1.04l44.2-25.43a5 5 0 0 0 2.5-4.33V38.88a1 1 0 0 0-1.48-.88" style="mix-blend-mode:darken"/><path fill="#FFF" fill-opacity=".5" d="M110.82 33.47a1 1 0 0 1-.39.38L66.38 57.71a5 5 0 0 1-4.76 0l-23.8-12.9 23.4 9.11a7 7 0 0 0 5.2-.04l.28-.13 44.2-20.46zM33.03 48.06l26.9 14.59a3 3 0 0 1 1.57 2.64v43.32L58.6 66a3 3 0 0 0-1.2-2.2l-.16-.12z"/></g></svg>